<svg xmlns="http://www.w3.org/2000/svg" viewBox="0 0 800 510" width="800" height="510" xmlns:c2pa="http://c2pa.org/manifest"><metadata><c2pa:manifest>AAAWgmp1bWIAAAAeanVtZGMycGEAEQAQgAAAqgA4m3EDYzJwYQAAABZcanVtYgAAAEdqdW1kYzJtYQARABCAAACqADibcQN1cm46YzJwYTowNDhkODA0YS1mNGM5LTQ5ODMtOGQ4ZC03NDUxZDczMDUzZTUAAAADl2p1bWIAAAApanVtZGMyYXMAEQAQgAAAqgA4m3EDYzJwYS5hc3NlcnRpb25zAAAAALxqdW1iAAAARGp1bWRjYm9yABEAEIAAAKoAOJtxE2MycGEuaW5ncmVkaWVudC52MwAAAAAYYzJzaPaBHDstCLyxukKGMW4zJQYAAABwY2JvcqNpZGM6Zm9ybWF0bWltYWdlL3N2Zyt4bWxqaW5zdGFuY2VJRHgseG1wOmlpZDpkMjZmNDYzMi1jOGI3LTQyOTUtOWNkNi01MTJlOWIzYWVjNDRscmVsYXRpb25zaGlwaHBhcmVudE9mAAAB4mp1bWIAAABBanVtZGNib3IAEQAQgAAAqgA4m3ETYzJwYS5hY3Rpb25zLnYyAAAAABhjMnNow/3h9DCiSYlSBhjUS8OrVgAAAZljYm9yomdhY3Rpb25zgqJmYWN0aW9ua2MycGEub3BlbmVkanBhcmFtZXRlcnOha2luZ3JlZGllbnRzgaJjdXJseC1zZWxmI2p1bWJmPWMycGEuYXNzZXJ0aW9ucy9jMnBhLmluZ3JlZGllbnQudjNkaGFzaFgg7sRiETYYRDtC4f2BWY3j8jJYQWHNKQXNAa/Z1iz7m4ikZmFjdGlvbngdY29tLmFudGhyb3BpYy5jbGF1ZGUucHJvdmlkZWRqcGFyYW1ldGVyc6F4H2NvbS5hbnRocm9waWMub3JpZ2luLWNvbmZpZGVuY2VndW5rbm93bmtkZXNjcmlwdGlvbnhmQ2xhdWRlIHByb3ZpZGVkIHRoaXMgZmlsZSBhdCB0aGUgcmVxdWVzdCBvZiBhIHVzZXIgYW5kIG1heSBoYXZlIGNyZWF0ZWQgb3IgbW9kaWZpZWQgdGhlIGZpbGUgY29udGVudHMubXNvZnR3YXJlQWdlbnShZG5hbWVmQ2xhdWRlcmFsbEFjdGlvbnNJbmNsdWRlZPUAAADIanVtYgAAAEBqdW1kY2JvcgARABCAAACqADibcRNjMnBhLmhhc2guZGF0YQAAAAAYYzJzaGXwIlwoMS9QYKnVKzR+5rAAAACAY2JvcqVjYWxnZnNoYTI1NmNwYWRNAAAAAAAAAAAAAAAAAGRoYXNoWCAxIPWRzFsiFtEOdJX99gEWWuZaAXCBbCoUXCOosEFRV2RuYW1lbmp1bWJmIG1hbmlmZXN0amV4Y2x1c2lvbnOBomVzdGFydBiWZmxlbmd0aBkeBAAAAj5qdW1iAAAAJ2p1bWRjMmNsABEAEIAAAKoAOJtxA2MycGEuY2xhaW0udjIAAAACD2Nib3KlY2FsZ2ZzaGEyNTZpc2lnbmF0dXJleE1zZWxmI2p1bWJmPS9jMnBhL3VybjpjMnBhOjA0OGQ4MDRhLWY0YzktNDk4My04ZDhkLTc0NTFkNzMwNTNlNS9jMnBhLnNpZ25hdHVyZWppbnN0YW5jZUlEeCx4bXA6aWlkOjI2ZDg2OTBlLTkwOWMtNDliZC1iNzAxLTk3MTc5MzRiMjFkMnJjcmVhdGVkX2Fzc2VydGlvbnODomN1cmx4LXNlbGYjanVtYmY9YzJwYS5hc3NlcnRpb25zL2MycGEuaW5ncmVkaWVudC52M2RoYXNoWCDuxGIRNhhEO0Lh/YFZjePyMlhBYc0pBc0Br9nWLPubiKJjdXJseCpzZWxmI2p1bWJmPWMycGEuYXNzZXJ0aW9ucy9jMnBhLmFjdGlvbnMudjJkaGFzaFggP+FGW0N+yrTxNlcMHCMXxzPH+6BHHHpQi6E7LL2ic0+iY3VybHgpc2VsZiNqdW1iZj1jMnBhLmFzc2VydGlvbnMvYzJwYS5oYXNoLmRhdGFkaGFzaFggZTGTrk99wdifG42lKbYulSD0ffF5UXEpFcWGo0s9xTB0Y2xhaW1fZ2VuZXJhdG9yX2luZm+jZG5hbWVvQW50aHJvcGljIEZpbGVzZ3ZlcnNpb25lMS4wLjBrc3BlY1ZlcnNpb25lMi40LjAAABA4anVtYgAAAChqdW1kYzJjcwARABCAAACqADibcQNjMnBhLnNpZ25hdHVyZQAAABAIY2JvctKEWQISogEmGCFZAgowggIGMIIBjaADAgECAhRA5aAK7sI50L64g/oGQgU9Z1UTADAKBggqhkjOPQQDAzBJMRcwFQYDVQQKEw5BbnRocm9waWMsIFBCQzEuMCwGA1UEAxMlQW50aHJvcGljIENvbnRlbnQgQ3JlZGVudGlhbHMgUm9vdCBDQTAeFw0yNjA4MDcxODQzNTZaFw0yODA4MDYxOTQzNTZaMEQxFzAVBgNVBAoTDkFudGhyb3BpYywgUEJDMSkwJwYDVQQDEyBBbnRocm9waWMgQ2xhdWRlIENvbnRlbnQgU2lnbmluZzBZMBMGByqGSM49AgEGCCqGSM49AwEHA0IABJh6CmvLUBgFFNU0vUKlOVtE6djd17L5SuwX0LemFisBM3dkd/3cyjxFA3Qo5S46fX0/ihY0VZ7mfb9KF703t5OjWDBWMA4GA1UdDwEB/wQEAwIHgDAVBgNVHSUEDjAMBgorBgEEAYPoXgIBMAwGA1UdEwEB/wQCMAAwHwYDVR0jBBgwFoAUzlHiBIFOZFsj+OPEz5o+nMHXXMIwCgYIKoZIzj0EAwMDZwAwZAIwMXMdFJ4BetLLVY7ORuE9noqbbAZOZn/aArXyTwFAZfKrPzxF2vPoJNf1+UCdg1XGAjBwX1zd9WGqYkqmL5SFqw1QySjr1zJfpJM9+1rdDwSPLMOPOjKuiXjoU/pUUeG9RwmhY3BhZFkNngAAAAAAAAAAAAAAAAAAAAAAAAAAAAAAAAAAAAAAAAAAAAAAAAAAAAAAAAAAAAAAAAAAAAAAAAAAAAAAAAAAAAAAAAAAAAAAAAAAAAAAAAAAAAAAAAAAAAAAAAAAAAAAAAAAAAAAAAAAAAAAAAAAAAAAAAAAAAAAAAAAAAAAAAAAAAAAAAAAAAAAAAAAAAAAAAAAAAAAAAAAAAAAAAAAAAAAAAAAAAAAAAAAAAAAAAAAAAAAAAAAAAAAAAAAAAAAAAAAAAAAAAAAAAAAAAAAAAAAAAAAAAAAAAAAAAAAAAAAAAAAAAAAAAAAAAAAAAAAAAAAAAAAAAAAAAAAAAAAAAAAAAAAAAAAAAAAAAAAAAAAAAAAAAAAAAAAAAAAAAAAAAAAAAAAAAAAAAAAAAAAAAAAAAAAAAAAAAAAAAAAAAAAAAAAAAAAAAAAAAAAAAAAAAAAAAAAAAAAAAAAAAAAAAAAAAAAAAAAAAAAAAAAAAAAAAAAAAAAAAAAAAAAAAAAAAAAAAAAAAAAAAAAAAAAAAAAAAAAAAAAAAAAAAAAAAAAAAAAAAAAAAAAAAAAAAAAAAAAAAAAAAAAAAAAAAAAAAAAAAAAAAAAAAAAAAAAAAAAAAAAAAAAAAAAAAAAAAAAAAAAAAAAAAAAAAAAAAAAAAAAAAAAAAAAAAAAAAAAAAAAAAAAAAAAAAAAAAAAAAAAAAAAAAAAAAAAAAAAAAAAAAAAAAAAAAAAAAAAAAAAAAAAAAAAAAAAAAAAAAAAAAAAAAAAAAAAAAAAAAAAAAAAAAAAAAAAAAAAAAAAAAAAAAAAAAAAAAAAAAAAAAAAAAAAAAAAAAAAAAAAAAAAAAAAAAAAAAAAAAAAAAAAAAAAAAAAAAAAAAAAAAAAAAAAAAAAAAAAAAAAAAAAAAAAAAAAAAAAAAAAAAAAAAAAAAAAAAAAAAAAAAAAAAAAAAAAAAAAAAAAAAAAAAAAAAAAAAAAAAAAAAAAAAAAAAAAAAAAAAAAAAAAAAAAAAAAAAAAAAAAAAAAAAAAAAAAAAAAAAAAAAAAAAAAAAAAAAAAAAAAAAAAAAAAAAAAAAAAAAAAAAAAAAAAAAAAAAAAAAAAAAAAAAAAAAAAAAAAAAAAAAAAAAAAAAAAAAAAAAAAAAAAAAAAAAAAAAAAAAAAAAAAAAAAAAAAAAAAAAAAAAAAAAAAAAAAAAAAAAAAAAAAAAAAAAAAAAAAAAAAAAAAAAAAAAAAAAAAAAAAAAAAAAAAAAAAAAAAAAAAAAAAAAAAAAAAAAAAAAAAAAAAAAAAAAAAAAAAAAAAAAAAAAAAAAAAAAAAAAAAAAAAAAAAAAAAAAAAAAAAAAAAAAAAAAAAAAAAAAAAAAAAAAAAAAAAAAAAAAAAAAAAAAAAAAAAAAAAAAAAAAAAAAAAAAAAAAAAAAAAAAAAAAAAAAAAAAAAAAAAAAAAAAAAAAAAAAAAAAAAAAAAAAAAAAAAAAAAAAAAAAAAAAAAAAAAAAAAAAAAAAAAAAAAAAAAAAAAAAAAAAAAAAAAAAAAAAAAAAAAAAAAAAAAAAAAAAAAAAAAAAAAAAAAAAAAAAAAAAAAAAAAAAAAAAAAAAAAAAAAAAAAAAAAAAAAAAAAAAAAAAAAAAAAAAAAAAAAAAAAAAAAAAAAAAAAAAAAAAAAAAAAAAAAAAAAAAAAAAAAAAAAAAAAAAAAAAAAAAAAAAAAAAAAAAAAAAAAAAAAAAAAAAAAAAAAAAAAAAAAAAAAAAAAAAAAAAAAAAAAAAAAAAAAAAAAAAAAAAAAAAAAAAAAAAAAAAAAAAAAAAAAAAAAAAAAAAAAAAAAAAAAAAAAAAAAAAAAAAAAAAAAAAAAAAAAAAAAAAAAAAAAAAAAAAAAAAAAAAAAAAAAAAAAAAAAAAAAAAAAAAAAAAAAAAAAAAAAAAAAAAAAAAAAAAAAAAAAAAAAAAAAAAAAAAAAAAAAAAAAAAAAAAAAAAAAAAAAAAAAAAAAAAAAAAAAAAAAAAAAAAAAAAAAAAAAAAAAAAAAAAAAAAAAAAAAAAAAAAAAAAAAAAAAAAAAAAAAAAAAAAAAAAAAAAAAAAAAAAAAAAAAAAAAAAAAAAAAAAAAAAAAAAAAAAAAAAAAAAAAAAAAAAAAAAAAAAAAAAAAAAAAAAAAAAAAAAAAAAAAAAAAAAAAAAAAAAAAAAAAAAAAAAAAAAAAAAAAAAAAAAAAAAAAAAAAAAAAAAAAAAAAAAAAAAAAAAAAAAAAAAAAAAAAAAAAAAAAAAAAAAAAAAAAAAAAAAAAAAAAAAAAAAAAAAAAAAAAAAAAAAAAAAAAAAAAAAAAAAAAAAAAAAAAAAAAAAAAAAAAAAAAAAAAAAAAAAAAAAAAAAAAAAAAAAAAAAAAAAAAAAAAAAAAAAAAAAAAAAAAAAAAAAAAAAAAAAAAAAAAAAAAAAAAAAAAAAAAAAAAAAAAAAAAAAAAAAAAAAAAAAAAAAAAAAAAAAAAAAAAAAAAAAAAAAAAAAAAAAAAAAAAAAAAAAAAAAAAAAAAAAAAAAAAAAAAAAAAAAAAAAAAAAAAAAAAAAAAAAAAAAAAAAAAAAAAAAAAAAAAAAAAAAAAAAAAAAAAAAAAAAAAAAAAAAAAAAAAAAAAAAAAAAAAAAAAAAAAAAAAAAAAAAAAAAAAAAAAAAAAAAAAAAAAAAAAAAAAAAAAAAAAAAAAAAAAAAAAAAAAAAAAAAAAAAAAAAAAAAAAAAAAAAAAAAAAAAAAAAAAAAAAAAAAAAAAAAAAAAAAAAAAAAAAAAAAAAAAAAAAAAAAAAAAAAAAAAAAAAAAAAAAAAAAAAAAAAAAAAAAAAAAAAAAAAAAAAAAAAAAAAAAAAAAAAAAAAAAAAAAAAAAAAAAAAAAAAAAAAAAAAAAAAAAAAAAAAAAAAAAAAAAAAAAAAAAAAAAAAAAAAAAAAAAAAAAAAAAAAAAAAAAAAAAAAAAAAAAAAAAAAAAAAAAAAAAAAAAAAAAAAAAAAAAAAAAAAAAAAAAAAAAAAAAAAAAAAAAAAAAAAAAAAAAAAAAAAAAAAAAAAAAAAAAAAAAAAAAAAAAAAAAAAAAAAAAAAAAAAAAAAAAAAAAAAAAAAAAAAAAAAAAAAAAAAAAAAAAAAAAAAAAAAAAAAAAAAAAAAAAAAAAAAAAAAAAAAAAAAAAAAAAAAAAAAAAAAAAAAAAAAAAAAAAAAAAAAAAAAAAAAAAAAAAAAAAAAAAAAAAAAAAAAAAAAAAAAAAAAAAAAAAAAAAAAAAAAAAAAAAAAAAAAAAAAAAAAAAAAAAAAAAAAAAAAAAAAAAAAAAAAAAAAAAAAAAAAAAAAAAAAAAAAAAAAAAAAAAAAAAAAAAAAAAAAAAAAAAAAAAAAAAAAAAAAAAAAAAAAAAAAAAAAAAAAAAAAAAAAAAAAAAAAAAAAAAAAAAAAAAAAAAAAAAAAAAAAAAAAAAAAAAAAAAAAAAAAAAAAAAAAAAAAAAAAAAAAAAAAAAAAAAAAAAAAAAAAAAAAAAAAAAAAAAAAAAAAAAAAAAAAAAAAAAAAAAAAAAAAAAAAAAAAAAAAAAAAAAAAAAAAAAAAAAAAAAAAAAAAAAAAAAAAAAAAAAAAAAAAAAAAAAAAAAAAAAAAAAAAAAAAAAAAAAAAAAAAAAAAAAAAAAAAAAAAAAAAAAAAAAAAAAAAAAAAAAAAAAAAAAAAAAAAAAAAAAAAAAAAAAAAAAAAAAAAAAAAAAAAAAAAAAAAAAAAAAAAAAAAAAAAAAAAAAAAAAAAAAAAAAAAAAAAAAAAAAAAAAAAAAAAAAAAAAAAAAAAAAAAAAAAAAAAAAAAAAAAAAAAAAAAAAAAAAAAAAAAAAAAAAAAAAAAAAAAAAAAAAAAAAAAAAAAAAAAAAAAAAAAAAAAAAAAAAAAAAAAAAAAAAAAAAAAAAAAAAAAAAAAAAAAAAAAAAAAAAAAAAAAAAAAAAAAAAAAAAAAAAAAAAAAAAAAAAAAAAAAAAAAAAAAAAAAAAAAAAAAAAAAAAAAAAAAAAAAAAAAAAAAAAAAAAAAAAAAAAAAAAAAAAAAAAAAAAAAAAAAAAAAAAAAAAAAAAAAAAAAAAAAAAAAAAAAAAAAAAAAAAAAAAAAAAAAAAAAAAAAAAAAAAAAAAAAAAAAAAAAAAAAAAAAAAAAAAAAAAAAAAAAAAAAAAAAAAAAAAAAAAAAAAAAAAAAAAAAAAAAAAAAAAAAAAAAAAAAAAAAAAAAAAAAAAAAAAAAAAAAAAAAAAAAAAAAAAAAAAAAAAAAAAAAAAAAAAAAAAAAAAAAAAAAAAAAAAAAAAAAAAAAAAAAAAAAAAAAAAAAAAAAAAAAAAAAAAAAAAAAAAAAAAAAAAAAAAAAAAAAAAAAAAAAAAAAAAAAAAAAAAAAAAAAAAAAAAAAAAAAAAAAAAAAAAAAAAAAAAAAAAAAAAAAAAAAAAAAAAAAAAAAAAAAAAAAAAAAAAAAAAAAAAAAAAAAAAAAAAAAAAAAAAAAAAAAAAAAAAAAAAAAAAAAAAAAAAAAAAAAAAAAAAAAAAAAAAAAAAAAAAAAAAAAAAAAAAAAAAAAAAAAAAAAAAAAAAAAAAAAAAAAAAAAAAAAAAAAAAAAAAAAAAAAAAAAAAAAAAAAAAAAAAAAAAAAAAAAAAAAAAAAAAAAAAAPZYQD1dJgKumT4WyiRwvjKfmMT6M4h0OD5tS1ixE/hthJOr+OYrPE7n0HKuL2TQPmypmevr//n17ZE1iAv54FSl9tw=</c2pa:manifest></metadata>
<title>Safety First – BHP i ochrona środowiska</title>

<g transform="translate(285.0 20) scale(2.3)"><path d="M78 14 A47 47 0 1 0 50 99" fill="none" stroke="#1D2B3E" stroke-width="5" stroke-linecap="round"/>
<path d="M57 5.5 A47 47 0 0 1 86 20" fill="none" stroke="#2E8B3E" stroke-width="5" stroke-linecap="round"/>
<path d="M50 16 L77 26 V49 C77 67 66 79 50 86 C34 79 23 67 23 49 V26 Z" fill="none" stroke="#1D2B3E" stroke-width="5.5" stroke-linejoin="round"/>
<path d="M34 53 C34 40 41 33 50 33 C59 33 66 40 66 53 Z" fill="#2E8B3E"/>
<rect x="30" y="51.5" width="40" height="6" rx="3" fill="#2E8B3E"/>
<path d="M50 34.5 V50" stroke="#FFFFFF" stroke-width="2.6" stroke-linecap="round"/>
<path d="M37.5 60 C38.5 70 61.5 70 62.5 60" fill="none" stroke="#1D2B3E" stroke-width="3.2" stroke-linecap="round"/>
<path d="M55 77.5 L63.5 86 L92 53" fill="none" stroke="#FFFFFF" stroke-width="15" stroke-linecap="round" stroke-linejoin="round"/>
<path d="M55 77.5 L63.5 86 L92 53" fill="none" stroke="#2E8B3E" stroke-width="8" stroke-linecap="round" stroke-linejoin="round"/></g>
<path transform="translate(56.98 340)" fill="#1D2B3E" d="M28.887999999999998 1.196Q21.16 1.196 13.938 -0.828Q6.716 -2.852 2.208 -6.072L7.728 -18.4Q11.959999999999999 -15.548 17.663999999999998 -13.708Q23.368 -11.868 28.98 -11.868Q33.12 -11.868 35.604 -12.65Q38.088 -13.432 39.284 -14.812000000000001Q40.48 -16.192 40.48 -17.94Q40.48 -20.332 38.456 -21.758000000000003Q36.432 -23.184 33.166 -24.058Q29.9 -24.932 25.944 -25.805999999999997Q21.988 -26.68 18.032 -27.921999999999997Q14.076 -29.163999999999998 10.81 -31.234Q7.544 -33.304 5.52 -36.662Q3.496 -40.019999999999996 3.496 -45.172Q3.496 -50.784 6.532 -55.384Q9.568 -59.984 15.777999999999999 -62.790000000000006Q21.988 -65.596 31.28 -65.596Q37.444 -65.596 43.47 -64.17Q49.496 -62.744 54.096 -59.891999999999996L49.036 -47.564Q44.528 -50.048 39.974000000000004 -51.29Q35.42 -52.532 31.188 -52.532Q27.14 -52.532 24.61 -51.611999999999995Q22.08 -50.692 20.976 -49.266Q19.872 -47.839999999999996 19.872 -46.0Q19.872 -43.608 21.896 -42.227999999999994Q23.919999999999998 -40.848 27.186 -40.019999999999996Q30.451999999999998 -39.192 34.408 -38.318Q38.364 -37.444 42.31999999999999 -36.202Q46.275999999999996 -34.96 49.542 -32.936Q52.808 -30.912 54.832 -27.6Q56.856 -24.288 56.856 -19.227999999999998Q56.856 -13.708 53.774 -9.062000000000001Q50.692 -4.416 44.482 -1.6100000000000003Q38.272 1.196 28.887999999999998 1.196Z M59.800000000000004 0.0 88.412 -64.4H104.78800000000001L133.4 0.0H116.104L93.196 -56.12H99.72800000000001L76.82000000000001 0.0ZM74.796 -13.156 79.12 -25.483999999999998H111.412L115.736 -13.156Z M141.22 0.0V-64.4H190.716V-51.336H157.78V0.0ZM156.584 -22.724V-35.788H186.852V-22.724Z M201.94 0.0V-64.4H251.43599999999998V-51.336H218.316V-13.064H252.632V0.0ZM217.12 -26.404V-39.008H247.572V-26.404Z M279.036 0.0V-51.06H258.888V-64.4H315.836V-51.06H295.596V0.0Z M339.84799999999996 0.0V-26.772L343.61999999999995 -16.744L315.0999999999999 -64.4H332.6719999999999L353.83199999999994 -28.887999999999998H343.71199999999993L365.0559999999999 -64.4H381.24799999999993L352.72799999999995 -16.744L356.4079999999999 -26.772V0.0Z"/><path transform="translate(462.33 340)" fill="#2E8B3E" d="M7.084 0.0V-64.4H56.58V-51.336H23.644V0.0ZM22.448 -22.724V-35.788H52.716V-22.724Z M67.804 0.0V-64.4H84.364V0.0Z M100.372 0.0V-64.4H128.432Q142.232 -64.4 149.776 -58.098Q157.32 -51.796 157.32 -40.848Q157.32 -33.58 153.87 -28.336Q150.42 -23.092 144.072 -20.332Q137.724 -17.572 128.98399999999998 -17.572H109.572L116.93199999999999 -24.656V0.0ZM140.76 0.0 124.66 -23.46H142.324L158.516 0.0ZM116.93199999999999 -22.816 109.572 -30.544H128.064Q134.32 -30.544 137.44799999999998 -33.258Q140.576 -35.972 140.576 -40.848Q140.576 -45.724 137.44799999999998 -48.438Q134.32 -51.152 128.064 -51.152H109.572L116.93199999999999 -58.879999999999995Z M191.912 1.196Q184.184 1.196 176.962 -0.828Q169.74 -2.852 165.232 -6.072L170.752 -18.4Q174.984 -15.548 180.688 -13.708Q186.392 -11.868 192.004 -11.868Q196.144 -11.868 198.628 -12.65Q201.112 -13.432 202.308 -14.812000000000001Q203.504 -16.192 203.504 -17.94Q203.504 -20.332 201.48000000000002 -21.758000000000003Q199.45600000000002 -23.184 196.19 -24.058Q192.924 -24.932 188.96800000000002 -25.805999999999997Q185.012 -26.68 181.05599999999998 -27.921999999999997Q177.1 -29.163999999999998 173.834 -31.234Q170.568 -33.304 168.544 -36.662Q166.52 -40.019999999999996 166.52 -45.172Q166.52 -50.784 169.556 -55.384Q172.592 -59.984 178.80200000000002 -62.790000000000006Q185.012 -65.596 194.304 -65.596Q200.46800000000002 -65.596 206.49400000000003 -64.17Q212.52 -62.744 217.12 -59.891999999999996L212.06 -47.564Q207.552 -50.048 202.998 -51.29Q198.44400000000002 -52.532 194.212 -52.532Q190.164 -52.532 187.634 -51.611999999999995Q185.10399999999998 -50.692 184.0 -49.266Q182.89600000000002 -47.839999999999996 182.89600000000002 -46.0Q182.89600000000002 -43.608 184.92000000000002 -42.227999999999994Q186.944 -40.848 190.20999999999998 -40.019999999999996Q193.476 -39.192 197.43200000000002 -38.318Q201.388 -37.444 205.344 -36.202Q209.3 -34.96 212.566 -32.936Q215.832 -30.912 217.856 -27.6Q219.88 -24.288 219.88 -19.227999999999998Q219.88 -13.708 216.798 -9.062000000000001Q213.716 -4.416 207.506 -1.6100000000000003Q201.296 1.196 191.912 1.196Z M243.524 0.0V-51.06H223.376V-64.4H280.324V-51.06H260.084V0.0Z"/>
<path transform="translate(150.66 400.00)" fill="#1D2B3E" d="M3.5700000000000003 0.0V-23.8H14.246Q18.360000000000003 -23.8 20.57 -22.151000000000003Q22.78 -20.502000000000002 22.78 -17.646Q22.78 -15.708000000000002 21.913000000000004 -14.382000000000001Q21.046000000000003 -13.056000000000001 19.584000000000003 -12.342Q18.122 -11.628 16.422 -11.628L17.034000000000002 -12.648000000000001Q19.074 -12.648000000000001 20.638 -11.934000000000001Q22.202 -11.22 23.12 -9.843Q24.038 -8.466000000000001 24.038 -6.426Q24.038 -3.366 21.743000000000002 -1.683Q19.448 0.0 14.926000000000002 0.0ZM6.970000000000001 -2.754H14.790000000000001Q17.612000000000002 -2.754 19.108000000000004 -3.7060000000000004Q20.604000000000003 -4.658 20.604000000000003 -6.698Q20.604000000000003 -8.772 19.108000000000004 -9.724Q17.612000000000002 -10.676 14.790000000000001 -10.676H6.664000000000001V-13.430000000000001H13.940000000000001Q16.524 -13.430000000000001 17.952 -14.382000000000001Q19.380000000000003 -15.334000000000001 19.380000000000003 -17.238Q19.380000000000003 -19.142000000000003 17.952 -20.094Q16.524 -21.046000000000003 13.940000000000001 -21.046000000000003H6.970000000000001Z M48.416000000000004 0.0V-23.8H51.816V0.0ZM31.348000000000003 0.0V-23.8H34.748000000000005V0.0ZM34.408 -10.608V-13.566H48.72200000000001V-10.608Z M60.996 0.0V-23.8H70.278Q73.406 -23.8 75.61600000000001 -22.814Q77.82600000000001 -21.828000000000003 79.016 -19.958000000000002Q80.206 -18.088 80.206 -15.504000000000001Q80.206 -12.920000000000002 79.016 -11.067Q77.82600000000001 -9.214 75.61600000000001 -8.211Q73.406 -7.208 70.278 -7.208H62.866L64.396 -8.806000000000001V0.0ZM64.396 -8.466000000000001 62.866 -10.166H70.176Q73.44 -10.166 75.123 -11.56Q76.80600000000001 -12.954 76.80600000000001 -15.504000000000001Q76.80600000000001 -18.054000000000002 75.123 -19.448Q73.44 -20.842000000000002 70.176 -20.842000000000002H62.866L64.396 -22.542Z M98.29400000000001 0.0V-18.02H101.55800000000002V0.0ZM99.92600000000002 -21.488000000000003Q98.97400000000002 -21.488000000000003 98.34500000000001 -22.1Q97.71600000000001 -22.712000000000003 97.71600000000001 -23.596Q97.71600000000001 -24.514000000000003 98.34500000000001 -25.126000000000005Q98.97400000000002 -25.738000000000003 99.92600000000002 -25.738000000000003Q100.87800000000001 -25.738000000000003 101.507 -25.143Q102.13600000000001 -24.548000000000002 102.13600000000001 -23.664Q102.13600000000001 -22.746000000000002 101.524 -22.117000000000004Q100.912 -21.488000000000003 99.92600000000002 -21.488000000000003Z M128.72400000000005 0.20400000000000001Q126.00400000000003 0.20400000000000001 123.89600000000004 -0.9860000000000001Q121.78800000000004 -2.176 120.56400000000004 -4.267Q119.34000000000003 -6.3580000000000005 119.34000000000003 -9.01Q119.34000000000003 -11.696000000000002 120.56400000000004 -13.770000000000001Q121.78800000000004 -15.844000000000001 123.89600000000004 -17.017000000000003Q126.00400000000003 -18.19 128.72400000000005 -18.19Q131.41000000000003 -18.19 133.53500000000003 -17.017000000000003Q135.66000000000003 -15.844000000000001 136.86700000000002 -13.787Q138.07400000000004 -11.73 138.07400000000004 -9.01Q138.07400000000004 -6.324000000000001 136.86700000000002 -4.25Q135.66000000000003 -2.176 133.53500000000003 -0.9860000000000001Q131.41000000000003 0.20400000000000001 128.72400000000005 0.20400000000000001ZM128.72400000000005 -2.652Q130.45800000000003 -2.652 131.83500000000004 -3.434Q133.21200000000005 -4.216 133.99400000000003 -5.6610000000000005Q134.77600000000004 -7.106000000000001 134.77600000000004 -9.01Q134.77600000000004 -10.948 133.99400000000003 -12.359000000000002Q133.21200000000005 -13.770000000000001 131.83500000000004 -14.552000000000001Q130.45800000000003 -15.334000000000001 128.72400000000005 -15.334000000000001Q126.99000000000004 -15.334000000000001 125.63000000000004 -14.552000000000001Q124.27000000000004 -13.770000000000001 123.45400000000004 -12.359000000000002Q122.63800000000003 -10.948 122.63800000000003 -9.01Q122.63800000000003 -7.106000000000001 123.45400000000004 -5.6610000000000005Q124.27000000000004 -4.216 125.63000000000004 -3.434Q126.99000000000004 -2.652 128.72400000000005 -2.652Z M152.49000000000004 0.20400000000000001Q149.73600000000002 0.20400000000000001 147.57700000000003 -0.9860000000000001Q145.41800000000003 -2.176 144.19400000000002 -4.25Q142.97000000000003 -6.324000000000001 142.97000000000003 -9.01Q142.97000000000003 -11.696000000000002 144.19400000000002 -13.770000000000001Q145.41800000000003 -15.844000000000001 147.57700000000003 -17.017000000000003Q149.73600000000002 -18.19 152.49000000000004 -18.19Q154.93800000000005 -18.19 156.85900000000004 -17.221000000000004Q158.78000000000003 -16.252000000000002 159.83400000000003 -14.348L157.35200000000003 -12.750000000000002Q156.46800000000002 -14.076 155.19300000000004 -14.705000000000002Q153.91800000000003 -15.334000000000001 152.45600000000002 -15.334000000000001Q150.68800000000005 -15.334000000000001 149.29400000000004 -14.552000000000001Q147.90000000000003 -13.770000000000001 147.08400000000003 -12.359000000000002Q146.26800000000003 -10.948 146.26800000000003 -9.01Q146.26800000000003 -7.072000000000001 147.08400000000003 -5.644Q147.90000000000003 -4.216 149.29400000000004 -3.434Q150.68800000000005 -2.652 152.45600000000002 -2.652Q153.91800000000003 -2.652 155.19300000000004 -3.281Q156.46800000000002 -3.91 157.35200000000003 -5.236000000000001L159.83400000000003 -3.672Q158.78000000000003 -1.802 156.85900000000004 -0.799Q154.93800000000005 0.20400000000000001 152.49000000000004 0.20400000000000001Z M165.852 0.0V-25.228H169.116V-13.158000000000001L168.47 -14.450000000000001Q169.354 -16.218 171.19 -17.204Q173.026 -18.19 175.47400000000002 -18.19Q177.68400000000003 -18.19 179.36700000000002 -17.340000000000003Q181.05 -16.490000000000002 182.002 -14.756Q182.954 -13.022 182.954 -10.370000000000001V0.0H179.69V-9.996Q179.69 -12.614 178.41500000000002 -13.940000000000001Q177.14000000000001 -15.266000000000002 174.828 -15.266000000000002Q173.09400000000002 -15.266000000000002 171.80200000000002 -14.586000000000002Q170.51000000000002 -13.906 169.81300000000002 -12.580000000000002Q169.116 -11.254000000000001 169.116 -9.282V0.0Z M191.046 0.0V-18.02H194.174V-13.124L193.868 -14.348Q194.61599999999999 -16.218 196.384 -17.204Q198.152 -18.19 200.736 -18.19V-15.028Q200.532 -15.062000000000001 200.345 -15.062000000000001Q200.158 -15.062000000000001 199.988 -15.062000000000001Q197.37 -15.062000000000001 195.84 -13.498000000000001Q194.31 -11.934000000000001 194.31 -8.976V0.0Z M214.336 0.20400000000000001Q211.616 0.20400000000000001 209.508 -0.9860000000000001Q207.4 -2.176 206.176 -4.267Q204.952 -6.3580000000000005 204.952 -9.01Q204.952 -11.696000000000002 206.176 -13.770000000000001Q207.4 -15.844000000000001 209.508 -17.017000000000003Q211.616 -18.19 214.336 -18.19Q217.022 -18.19 219.147 -17.017000000000003Q221.272 -15.844000000000001 222.47899999999998 -13.787Q223.686 -11.73 223.686 -9.01Q223.686 -6.324000000000001 222.47899999999998 -4.25Q221.272 -2.176 219.147 -0.9860000000000001Q217.022 0.20400000000000001 214.336 0.20400000000000001ZM214.336 -2.652Q216.07 -2.652 217.447 -3.434Q218.824 -4.216 219.606 -5.6610000000000005Q220.388 -7.106000000000001 220.388 -9.01Q220.388 -10.948 219.606 -12.359000000000002Q218.824 -13.770000000000001 217.447 -14.552000000000001Q216.07 -15.334000000000001 214.336 -15.334000000000001Q212.602 -15.334000000000001 211.24200000000002 -14.552000000000001Q209.882 -13.770000000000001 209.066 -12.359000000000002Q208.25 -10.948 208.25 -9.01Q208.25 -7.106000000000001 209.066 -5.6610000000000005Q209.882 -4.216 211.24200000000002 -3.434Q212.602 -2.652 214.336 -2.652Z M230.248 0.0V-18.02H233.376V-13.158000000000001L232.86599999999999 -14.450000000000001Q233.75 -16.218 235.586 -17.204Q237.422 -18.19 239.87 -18.19Q242.07999999999998 -18.19 243.76299999999998 -17.340000000000003Q245.446 -16.490000000000002 246.398 -14.756Q247.35 -13.022 247.35 -10.370000000000001V0.0H244.086V-9.996Q244.086 -12.614 242.811 -13.940000000000001Q241.536 -15.266000000000002 239.224 -15.266000000000002Q237.49 -15.266000000000002 236.198 -14.586000000000002Q234.906 -13.906 234.209 -12.580000000000002Q233.512 -11.254000000000001 233.512 -9.282V0.0Z M266.628 0.0V-3.8080000000000003L266.45799999999997 -4.522V-11.016Q266.45799999999997 -13.090000000000002 265.251 -14.229000000000001Q264.044 -15.368 261.63 -15.368Q260.032 -15.368 258.50199999999995 -14.841000000000001Q256.972 -14.314000000000002 255.91799999999998 -13.430000000000001L254.558 -15.878000000000002Q255.952 -17.0 257.907 -17.595Q259.86199999999997 -18.19 262.00399999999996 -18.19Q265.71 -18.19 267.716 -16.388Q269.722 -14.586 269.722 -10.88V0.0ZM260.712 0.20400000000000001Q258.70599999999996 0.20400000000000001 257.193 -0.4760000000000001Q255.67999999999998 -1.1560000000000001 254.86399999999998 -2.3630000000000004Q254.04799999999997 -3.5700000000000003 254.04799999999997 -5.1000000000000005Q254.04799999999997 -6.562 254.74499999999998 -7.752000000000001Q255.44199999999998 -8.942 257.02299999999997 -9.656Q258.604 -10.370000000000001 261.28999999999996 -10.370000000000001H267.002V-8.024000000000001H261.426Q258.978 -8.024000000000001 258.128 -7.208Q257.27799999999996 -6.392 257.27799999999996 -5.236000000000001Q257.27799999999996 -3.91 258.332 -3.111Q259.38599999999997 -2.3120000000000003 261.256 -2.3120000000000003Q263.092 -2.3120000000000003 264.469 -3.128Q265.846 -3.9440000000000004 266.45799999999997 -5.508L267.104 -3.2640000000000002Q266.45799999999997 -1.6660000000000001 264.82599999999996 -0.7310000000000001Q263.19399999999996 0.20400000000000001 260.712 0.20400000000000001Z M294.16800000000006 0.20400000000000001Q291.9240000000001 0.20400000000000001 289.90100000000007 -0.40800000000000003Q287.87800000000004 -1.02 286.72200000000004 -1.9040000000000001L288.08200000000005 -4.488Q289.23800000000006 -3.7060000000000004 290.9380000000001 -3.1620000000000004Q292.6380000000001 -2.6180000000000003 294.40600000000006 -2.6180000000000003Q296.6840000000001 -2.6180000000000003 297.68700000000007 -3.2640000000000002Q298.69000000000005 -3.91 298.69000000000005 -5.066000000000001Q298.69000000000005 -5.916 298.0780000000001 -6.392Q297.46600000000007 -6.868 296.4630000000001 -7.106Q295.46000000000004 -7.344 294.23600000000005 -7.531000000000001Q293.01200000000006 -7.718000000000001 291.78800000000007 -8.007000000000001Q290.5640000000001 -8.296000000000001 289.5440000000001 -8.823Q288.52400000000006 -9.350000000000001 287.91200000000003 -10.285Q287.30000000000007 -11.22 287.30000000000007 -12.784Q287.30000000000007 -14.416 288.2180000000001 -15.64Q289.1360000000001 -16.864 290.8190000000001 -17.527Q292.50200000000007 -18.19 294.8140000000001 -18.19Q296.58200000000005 -18.19 298.40100000000007 -17.765Q300.2200000000001 -17.34 301.3760000000001 -16.558L299.9820000000001 -13.974Q298.75800000000004 -14.790000000000001 297.432 -15.096Q296.10600000000005 -15.402000000000001 294.7800000000001 -15.402000000000001Q292.6380000000001 -15.402000000000001 291.58400000000006 -14.705000000000002Q290.5300000000001 -14.008000000000001 290.5300000000001 -12.920000000000002Q290.5300000000001 -12.002 291.1590000000001 -11.509Q291.78800000000007 -11.016 292.79100000000005 -10.744Q293.79400000000004 -10.472000000000001 295.01800000000003 -10.285Q296.2420000000001 -10.098 297.46600000000007 -9.809000000000001Q298.69000000000005 -9.520000000000001 299.6930000000001 -9.010000000000002Q300.6960000000001 -8.5 301.32500000000005 -7.582000000000001Q301.95400000000006 -6.664000000000001 301.95400000000006 -5.134Q301.95400000000006 -3.5020000000000002 301.00200000000007 -2.3120000000000003Q300.05000000000007 -1.122 298.31600000000003 -0.4590000000000001Q296.58200000000005 0.20400000000000001 294.16800000000006 0.20400000000000001ZM291.78800000000007 -20.638 296.4120000000001 -25.058000000000003H300.5600000000001L294.84800000000007 -20.638Z M308.07400000000007 0.0V-18.02H311.20200000000006V-13.124L310.8960000000001 -14.348Q311.64400000000006 -16.218 313.41200000000003 -17.204Q315.18000000000006 -18.19 317.76400000000007 -18.19V-15.028Q317.56000000000006 -15.062000000000001 317.37300000000005 -15.062000000000001Q317.1860000000001 -15.062000000000001 317.0160000000001 -15.062000000000001Q314.3980000000001 -15.062000000000001 312.86800000000005 -13.498000000000001Q311.3380000000001 -11.934000000000001 311.3380000000001 -8.976V0.0Z M331.3640000000001 0.20400000000000001Q328.64400000000006 0.20400000000000001 326.53600000000006 -0.9860000000000001Q324.42800000000005 -2.176 323.20400000000006 -4.267Q321.9800000000001 -6.3580000000000005 321.9800000000001 -9.01Q321.9800000000001 -11.696000000000002 323.20400000000006 -13.770000000000001Q324.42800000000005 -15.844000000000001 326.53600000000006 -17.017000000000003Q328.64400000000006 -18.19 331.3640000000001 -18.19Q334.05000000000007 -18.19 336.17500000000007 -17.017000000000003Q338.30000000000007 -15.844000000000001 339.50700000000006 -13.787Q340.71400000000006 -11.73 340.71400000000006 -9.01Q340.71400000000006 -6.324000000000001 339.50700000000006 -4.25Q338.30000000000007 -2.176 336.17500000000007 -0.9860000000000001Q334.05000000000007 0.20400000000000001 331.3640000000001 0.20400000000000001ZM331.3640000000001 -2.652Q333.09800000000007 -2.652 334.4750000000001 -3.434Q335.8520000000001 -4.216 336.63400000000007 -5.6610000000000005Q337.41600000000005 -7.106000000000001 337.41600000000005 -9.01Q337.41600000000005 -10.948 336.63400000000007 -12.359000000000002Q335.8520000000001 -13.770000000000001 334.4750000000001 -14.552000000000001Q333.09800000000007 -15.334000000000001 331.3640000000001 -15.334000000000001Q329.63000000000005 -15.334000000000001 328.2700000000001 -14.552000000000001Q326.9100000000001 -13.770000000000001 326.09400000000005 -12.359000000000002Q325.2780000000001 -10.948 325.2780000000001 -9.01Q325.2780000000001 -7.106000000000001 326.09400000000005 -5.6610000000000005Q326.9100000000001 -4.216 328.2700000000001 -3.434Q329.63000000000005 -2.652 331.3640000000001 -2.652Z M354.7220000000001 0.20400000000000001Q352.1040000000001 0.20400000000000001 350.0470000000001 -0.9520000000000001Q347.99000000000007 -2.108 346.80000000000007 -4.182Q345.61000000000007 -6.256 345.61000000000007 -9.01Q345.61000000000007 -11.764000000000001 346.80000000000007 -13.821000000000002Q347.99000000000007 -15.878000000000002 350.0470000000001 -17.034000000000002Q352.1040000000001 -18.19 354.7220000000001 -18.19Q357.00000000000006 -18.19 358.83600000000007 -17.17Q360.6720000000001 -16.150000000000002 361.77700000000004 -14.110000000000001Q362.88200000000006 -12.07 362.88200000000006 -9.01Q362.88200000000006 -5.95 361.81100000000004 -3.91Q360.74000000000007 -1.87 358.9040000000001 -0.8330000000000001Q357.0680000000001 0.20400000000000001 354.7220000000001 0.20400000000000001ZM354.9940000000001 -2.652Q356.6940000000001 -2.652 358.0710000000001 -3.434Q359.4480000000001 -4.216 360.24700000000007 -5.6610000000000005Q361.04600000000005 -7.106000000000001 361.04600000000005 -9.01Q361.04600000000005 -10.948 360.24700000000007 -12.359000000000002Q359.4480000000001 -13.770000000000001 358.0710000000001 -14.552000000000001Q356.6940000000001 -15.334000000000001 354.9940000000001 -15.334000000000001Q353.26000000000005 -15.334000000000001 351.9000000000001 -14.552000000000001Q350.5400000000001 -13.770000000000001 349.72400000000005 -12.359000000000002Q348.9080000000001 -10.948 348.9080000000001 -9.01Q348.9080000000001 -7.106000000000001 349.72400000000005 -5.6610000000000005Q350.5400000000001 -4.216 351.9000000000001 -3.434Q353.26000000000005 -2.652 354.9940000000001 -2.652ZM361.1480000000001 0.0V-4.862L361.3520000000001 -9.044L361.01200000000006 -13.226V-25.228H364.27600000000007V0.0Z M380.2220000000001 0.20400000000000001Q377.50200000000007 0.20400000000000001 375.39400000000006 -0.9860000000000001Q373.28600000000006 -2.176 372.06200000000007 -4.267Q370.8380000000001 -6.3580000000000005 370.8380000000001 -9.01Q370.8380000000001 -11.696000000000002 372.06200000000007 -13.770000000000001Q373.28600000000006 -15.844000000000001 375.39400000000006 -17.017000000000003Q377.50200000000007 -18.19 380.2220000000001 -18.19Q382.9080000000001 -18.19 385.0330000000001 -17.017000000000003Q387.1580000000001 -15.844000000000001 388.36500000000007 -13.787Q389.57200000000006 -11.73 389.57200000000006 -9.01Q389.57200000000006 -6.324000000000001 388.36500000000007 -4.25Q387.1580000000001 -2.176 385.0330000000001 -0.9860000000000001Q382.9080000000001 0.20400000000000001 380.2220000000001 0.20400000000000001ZM380.2220000000001 -2.652Q381.9560000000001 -2.652 383.3330000000001 -3.434Q384.7100000000001 -4.216 385.4920000000001 -5.6610000000000005Q386.27400000000006 -7.106000000000001 386.27400000000006 -9.01Q386.27400000000006 -10.948 385.4920000000001 -12.359000000000002Q384.7100000000001 -13.770000000000001 383.3330000000001 -14.552000000000001Q381.9560000000001 -15.334000000000001 380.2220000000001 -15.334000000000001Q378.48800000000006 -15.334000000000001 377.12800000000004 -14.552000000000001Q375.7680000000001 -13.770000000000001 374.9520000000001 -12.359000000000002Q374.1360000000001 -10.948 374.1360000000001 -9.01Q374.1360000000001 -7.106000000000001 374.9520000000001 -5.6610000000000005Q375.7680000000001 -4.216 377.12800000000004 -3.434Q378.48800000000006 -2.652 380.2220000000001 -2.652Z M399.4320000000001 0.0 392.7340000000001 -18.02H395.8280000000001L401.7780000000001 -1.7000000000000002H400.3160000000001L406.5040000000001 -18.02H409.2580000000001L415.31000000000006 -1.7000000000000002H413.88200000000006L419.9680000000001 -18.02H422.8920000000001L416.1600000000001 0.0H413.0320000000001L407.3540000000001 -14.892000000000001H408.3060000000001L402.56000000000006 0.0Z M428.23000000000013 0.0V-18.02H431.49400000000014V0.0ZM429.86200000000014 -21.488000000000003Q428.91000000000014 -21.488000000000003 428.2810000000002 -22.1Q427.65200000000016 -22.712000000000003 427.65200000000016 -23.596Q427.65200000000016 -24.514000000000003 428.2810000000002 -25.126000000000005Q428.91000000000014 -25.738000000000003 429.86200000000014 -25.738000000000003Q430.81400000000014 -25.738000000000003 431.44300000000015 -25.143Q432.0720000000002 -24.548000000000002 432.0720000000002 -23.664Q432.0720000000002 -22.746000000000002 431.46000000000015 -22.117000000000004Q430.8480000000001 -21.488000000000003 429.86200000000014 -21.488000000000003Z M444.92400000000015 0.20400000000000001Q442.6800000000002 0.20400000000000001 440.65700000000015 -0.40800000000000003Q438.6340000000001 -1.02 437.4780000000001 -1.9040000000000001L438.83800000000014 -4.488Q439.99400000000014 -3.7060000000000004 441.6940000000002 -3.1620000000000004Q443.3940000000002 -2.6180000000000003 445.16200000000015 -2.6180000000000003Q447.44000000000017 -2.6180000000000003 448.44300000000015 -3.2640000000000002Q449.44600000000014 -3.91 449.44600000000014 -5.066000000000001Q449.44600000000014 -5.916 448.8340000000002 -6.392Q448.22200000000015 -6.868 447.21900000000016 -7.106Q446.2160000000001 -7.344 444.99200000000013 -7.531000000000001Q443.76800000000014 -7.718000000000001 442.54400000000015 -8.007000000000001Q441.32000000000016 -8.296000000000001 440.3000000000002 -8.823Q439.28000000000014 -9.350000000000001 438.6680000000001 -10.285Q438.05600000000015 -11.22 438.05600000000015 -12.784Q438.05600000000015 -14.416 438.97400000000016 -15.64Q439.89200000000017 -16.864 441.57500000000016 -17.527Q443.25800000000015 -18.19 445.57000000000016 -18.19Q447.33800000000014 -18.19 449.15700000000015 -17.765Q450.97600000000017 -17.34 452.1320000000002 -16.558L450.73800000000017 -13.974Q449.5140000000001 -14.790000000000001 448.1880000000001 -15.096Q446.86200000000014 -15.402000000000001 445.5360000000002 -15.402000000000001Q443.3940000000002 -15.402000000000001 442.34000000000015 -14.705000000000002Q441.2860000000002 -14.008000000000001 441.2860000000002 -12.920000000000002Q441.2860000000002 -12.002 441.9150000000002 -11.509Q442.54400000000015 -11.016 443.54700000000014 -10.744Q444.5500000000001 -10.472000000000001 445.7740000000001 -10.285Q446.99800000000016 -10.098 448.22200000000015 -9.809000000000001Q449.44600000000014 -9.520000000000001 450.4490000000002 -9.010000000000002Q451.45200000000017 -8.5 452.08100000000013 -7.582000000000001Q452.71000000000015 -6.664000000000001 452.71000000000015 -5.134Q452.71000000000015 -3.5020000000000002 451.75800000000015 -2.3120000000000003Q450.80600000000015 -1.122 449.0720000000001 -0.4590000000000001Q447.33800000000014 0.20400000000000001 444.92400000000015 0.20400000000000001Z M461.48200000000014 -4.352 461.5500000000002 -8.534 471.9200000000002 -18.02H475.86400000000015L467.9080000000002 -10.200000000000001L466.14000000000016 -8.704ZM458.83000000000015 0.0V-25.228H462.09400000000016V0.0ZM472.60000000000014 0.0 465.52800000000013 -8.772 467.63600000000014 -11.39 476.61200000000014 0.0Z M492.6260000000002 0.0V-3.8080000000000003L492.4560000000002 -4.522V-11.016Q492.4560000000002 -13.090000000000002 491.2490000000002 -14.229000000000001Q490.0420000000002 -15.368 487.62800000000016 -15.368Q486.0300000000002 -15.368 484.5000000000002 -14.841000000000001Q482.9700000000002 -14.314000000000002 481.91600000000017 -13.430000000000001L480.55600000000015 -15.878000000000002Q481.95000000000016 -17.0 483.9050000000002 -17.595Q485.8600000000002 -18.19 488.0020000000002 -18.19Q491.7080000000002 -18.19 493.71400000000017 -16.388Q495.7200000000002 -14.586 495.7200000000002 -10.88V0.0ZM486.71000000000015 0.20400000000000001Q484.7040000000002 0.20400000000000001 483.19100000000014 -0.4760000000000001Q481.67800000000017 -1.1560000000000001 480.8620000000002 -2.3630000000000004Q480.04600000000016 -3.5700000000000003 480.04600000000016 -5.1000000000000005Q480.04600000000016 -6.562 480.74300000000017 -7.752000000000001Q481.44000000000017 -8.942 483.0210000000002 -9.656Q484.6020000000002 -10.370000000000001 487.2880000000002 -10.370000000000001H493.00000000000017V-8.024000000000001H487.42400000000015Q484.97600000000017 -8.024000000000001 484.1260000000002 -7.208Q483.2760000000002 -6.392 483.2760000000002 -5.236000000000001Q483.2760000000002 -3.91 484.33000000000015 -3.111Q485.3840000000002 -2.3120000000000003 487.2540000000002 -2.3120000000000003Q489.0900000000002 -2.3120000000000003 490.4670000000002 -3.128Q491.84400000000016 -3.9440000000000004 492.4560000000002 -5.508L493.1020000000002 -3.2640000000000002Q492.4560000000002 -1.6660000000000001 490.8240000000002 -0.7310000000000001Q489.1920000000002 0.20400000000000001 486.71000000000015 0.20400000000000001Z"/>
<path d="M57.0 388 H128.7 M671.3 388 H743.0" stroke="#2E8B3E" stroke-width="3" stroke-linecap="round"/>
<path transform="translate(101.29 470)" fill="#1D2B3E" d="M2.2560000000000002 0.0V-16.8H10.128Q13.152000000000001 -16.8 14.736 -15.612Q16.32 -14.424 16.32 -12.432Q16.32 -11.088000000000001 15.696000000000002 -10.14Q15.072000000000001 -9.192 14.028 -8.676Q12.984 -8.16 11.76 -8.16L12.192 -9.024000000000001Q13.608 -9.024000000000001 14.736 -8.508000000000001Q15.864 -7.992 16.524 -7.008Q17.184 -6.024 17.184 -4.5600000000000005Q17.184 -2.4 15.528 -1.2Q13.872 0.0 10.608 0.0ZM5.376 -2.448H10.416Q12.168000000000001 -2.448 13.104000000000001 -3.024Q14.040000000000001 -3.6 14.040000000000001 -4.872Q14.040000000000001 -6.12 13.104000000000001 -6.708Q12.168000000000001 -7.296 10.416 -7.296H5.136V-9.72H9.792Q11.424 -9.72 12.3 -10.296Q13.176 -10.872 13.176 -12.024000000000001Q13.176 -13.200000000000001 12.3 -13.776Q11.424 -14.352 9.792 -14.352H5.376Z M28.176 0.168Q26.04 0.168 24.444 -0.684Q22.848 -1.536 21.971999999999998 -3.024Q21.095999999999997 -4.5120000000000005 21.095999999999997 -6.408Q21.095999999999997 -8.328 21.947999999999997 -9.803999999999998Q22.799999999999997 -11.28 24.299999999999997 -12.120000000000001Q25.799999999999997 -12.96 27.72 -12.96Q29.592 -12.96 31.055999999999997 -12.144Q32.519999999999996 -11.328 33.36 -9.84Q34.199999999999996 -8.352 34.199999999999996 -6.336Q34.199999999999996 -6.144 34.188 -5.904Q34.176 -5.664 34.152 -5.448H23.471999999999998V-7.44H32.568L31.391999999999996 -6.816Q31.415999999999997 -7.92 30.935999999999996 -8.76Q30.455999999999996 -9.6 29.627999999999997 -10.08Q28.799999999999997 -10.56 27.72 -10.56Q26.616 -10.56 25.787999999999997 -10.08Q24.959999999999997 -9.6 24.491999999999997 -8.748Q24.023999999999997 -7.896 24.023999999999997 -6.744V-6.264Q24.023999999999997 -5.112 24.552 -4.224Q25.08 -3.336 26.04 -2.856Q26.999999999999996 -2.376 28.247999999999998 -2.376Q29.327999999999996 -2.376 30.191999999999997 -2.7119999999999997Q31.055999999999997 -3.048 31.727999999999998 -3.7680000000000002L33.336 -1.92Q32.471999999999994 -0.912 31.163999999999994 -0.372Q29.855999999999998 0.168 28.176 0.168Z M37.824 0.0V-1.8960000000000001L45.72 -11.448L46.272 -10.416H37.967999999999996V-12.816H48.672V-10.92L40.775999999999996 -1.368L40.176 -2.4H48.888V0.0Z M60.672000000000004 0.168Q59.112 0.168 57.828 -0.552Q56.544000000000004 -1.272 55.788000000000004 -2.724Q55.032000000000004 -4.176 55.032000000000004 -6.408Q55.032000000000004 -8.664 55.764 -10.104Q56.496 -11.544 57.768 -12.252Q59.04 -12.96 60.672000000000004 -12.96Q62.568 -12.96 64.02000000000001 -12.144Q65.47200000000001 -11.328 66.32400000000001 -9.864Q67.176 -8.4 67.176 -6.408Q67.176 -4.416 66.32400000000001 -2.9400000000000004Q65.47200000000001 -1.464 64.02000000000001 -0.648Q62.568 0.168 60.672000000000004 0.168ZM53.568 4.656V-12.816H56.424V-9.792L56.328 -6.384L56.568 -2.976V4.656ZM60.336 -2.4Q61.416000000000004 -2.4 62.268 -2.88Q63.120000000000005 -3.36 63.624 -4.272Q64.128 -5.184 64.128 -6.408Q64.128 -7.656000000000001 63.624 -8.556000000000001Q63.120000000000005 -9.456 62.268 -9.936Q61.416000000000004 -10.416 60.336 -10.416Q59.256 -10.416 58.391999999999996 -9.936Q57.528 -9.456 57.024 -8.556000000000001Q56.52 -7.656000000000001 56.52 -6.408Q56.52 -5.184 57.024 -4.272Q57.528 -3.36 58.391999999999996 -2.88Q59.256 -2.4 60.336 -2.4Z M71.952 0.0V-12.816H74.952V0.0ZM73.464 -14.928Q72.624 -14.928 72.084 -15.456Q71.544 -15.984 71.544 -16.728Q71.544 -17.496 72.084 -18.012Q72.624 -18.528 73.464 -18.528Q74.304 -18.528 74.844 -18.036Q75.384 -17.544 75.384 -16.8Q75.384 -16.008 74.856 -15.468Q74.328 -14.928 73.464 -14.928Z M86.832 0.168Q84.69599999999998 0.168 83.1 -0.684Q81.50399999999999 -1.536 80.62799999999999 -3.024Q79.752 -4.5120000000000005 79.752 -6.408Q79.752 -8.328 80.60399999999998 -9.803999999999998Q81.45599999999999 -11.28 82.95599999999999 -12.120000000000001Q84.45599999999999 -12.96 86.37599999999999 -12.96Q88.24799999999999 -12.96 89.71199999999999 -12.144Q91.17599999999999 -11.328 92.01599999999999 -9.84Q92.856 -8.352 92.856 -6.336Q92.856 -6.144 92.844 -5.904Q92.832 -5.664 92.80799999999999 -5.448H82.12799999999999V-7.44H91.22399999999999L90.04799999999999 -6.816Q90.07199999999999 -7.92 89.59199999999998 -8.76Q89.112 -9.6 88.28399999999999 -10.08Q87.45599999999999 -10.56 86.37599999999999 -10.56Q85.27199999999999 -10.56 84.44399999999999 -10.08Q83.61599999999999 -9.6 83.148 -8.748Q82.67999999999999 -7.896 82.67999999999999 -6.744V-6.264Q82.67999999999999 -5.112 83.208 -4.224Q83.73599999999999 -3.336 84.696 -2.856Q85.65599999999999 -2.376 86.904 -2.376Q87.984 -2.376 88.84799999999998 -2.7119999999999997Q89.71199999999999 -3.048 90.38399999999999 -3.7680000000000002L91.99199999999999 -1.92Q91.12799999999999 -0.912 89.82 -0.372Q88.51199999999999 0.168 86.832 0.168Z M103.53599999999999 0.168Q101.51999999999998 0.168 99.94799999999998 -0.684Q98.37599999999999 -1.536 97.488 -3.024Q96.6 -4.5120000000000005 96.6 -6.408Q96.6 -8.328 97.488 -9.803999999999998Q98.37599999999999 -11.28 99.94799999999998 -12.120000000000001Q101.51999999999998 -12.96 103.53599999999999 -12.96Q105.40799999999999 -12.96 106.83599999999998 -12.204Q108.26399999999998 -11.448 109.00799999999998 -9.984L106.704 -8.64Q106.12799999999999 -9.552 105.29999999999998 -9.984Q104.472 -10.416 103.51199999999999 -10.416Q102.40799999999999 -10.416 101.51999999999998 -9.936Q100.63199999999999 -9.456 100.12799999999999 -8.556000000000001Q99.624 -7.656000000000001 99.624 -6.408Q99.624 -5.16 100.12799999999999 -4.26Q100.63199999999999 -3.36 101.51999999999998 -2.88Q102.40799999999999 -2.4 103.51199999999999 -2.4Q104.472 -2.4 105.29999999999998 -2.832Q106.12799999999999 -3.2640000000000002 106.704 -4.176L109.00799999999998 -2.832Q108.26399999999998 -1.3920000000000001 106.83599999999998 -0.6120000000000001Q105.40799999999999 0.168 103.53599999999999 0.168Z M112.344 0.0V-1.8960000000000001L120.23999999999998 -11.448L120.79199999999999 -10.416H112.48799999999999V-12.816H123.192V-10.92L115.29599999999999 -1.368L114.69599999999998 -2.4H123.40799999999999V0.0Z M133.92 0.168Q131.784 0.168 130.188 -0.684Q128.59199999999998 -1.536 127.71599999999998 -3.024Q126.83999999999999 -4.5120000000000005 126.83999999999999 -6.408Q126.83999999999999 -8.328 127.69199999999998 -9.803999999999998Q128.54399999999998 -11.28 130.04399999999998 -12.120000000000001Q131.54399999999998 -12.96 133.46399999999997 -12.96Q135.33599999999998 -12.96 136.79999999999998 -12.144Q138.26399999999998 -11.328 139.10399999999998 -9.84Q139.944 -8.352 139.944 -6.336Q139.944 -6.144 139.932 -5.904Q139.92 -5.664 139.896 -5.448H129.21599999999998V-7.44H138.31199999999998L137.136 -6.816Q137.16 -7.92 136.68 -8.76Q136.2 -9.6 135.37199999999999 -10.08Q134.54399999999998 -10.56 133.46399999999997 -10.56Q132.35999999999999 -10.56 131.53199999999998 -10.08Q130.70399999999998 -9.6 130.236 -8.748Q129.76799999999997 -7.896 129.76799999999997 -6.744V-6.264Q129.76799999999997 -5.112 130.296 -4.224Q130.82399999999998 -3.336 131.784 -2.856Q132.74399999999997 -2.376 133.992 -2.376Q135.07199999999997 -2.376 135.93599999999998 -2.7119999999999997Q136.79999999999998 -3.048 137.47199999999998 -3.7680000000000002L139.07999999999998 -1.92Q138.21599999999998 -0.912 136.908 -0.372Q135.6 0.168 133.92 0.168Z M144.74399999999997 0.0V-12.816H147.6V-9.36L147.09599999999998 -10.416Q147.76799999999997 -11.64 149.05199999999996 -12.3Q150.33599999999998 -12.96 152.016 -12.96Q153.552 -12.96 154.76399999999998 -12.36Q155.97599999999997 -11.76 156.67199999999997 -10.524000000000001Q157.368 -9.288 157.368 -7.344V0.0H154.368V-6.96Q154.368 -8.664 153.564 -9.504Q152.76 -10.344 151.32 -10.344Q150.26399999999998 -10.344 149.44799999999998 -9.911999999999999Q148.63199999999998 -9.48 148.188 -8.628Q147.74399999999997 -7.776 147.74399999999997 -6.48V0.0ZM149.04 -14.568 152.28 -17.856H155.808L151.632 -14.568Z M167.06399999999996 0.168Q165.45599999999996 0.168 163.97999999999996 -0.252Q162.50399999999996 -0.672 161.63999999999996 -1.272L162.79199999999997 -3.552Q163.65599999999998 -3.0 164.85599999999997 -2.64Q166.05599999999995 -2.2800000000000002 167.25599999999997 -2.2800000000000002Q168.67199999999997 -2.2800000000000002 169.30799999999996 -2.664Q169.94399999999996 -3.048 169.94399999999996 -3.696Q169.94399999999996 -4.224 169.51199999999994 -4.5Q169.07999999999996 -4.776 168.38399999999996 -4.92Q167.68799999999996 -5.064 166.83599999999996 -5.184Q165.98399999999998 -5.304 165.13199999999998 -5.508Q164.27999999999997 -5.712 163.58399999999997 -6.1080000000000005Q162.88799999999998 -6.5040000000000004 162.45599999999996 -7.176Q162.02399999999997 -7.848 162.02399999999997 -8.952Q162.02399999999997 -10.176 162.71999999999997 -11.076Q163.41599999999997 -11.976 164.676 -12.468Q165.93599999999998 -12.96 167.66399999999996 -12.96Q168.95999999999998 -12.96 170.27999999999997 -12.672Q171.59999999999997 -12.384 172.46399999999997 -11.856L171.31199999999995 -9.576Q170.39999999999998 -10.128 169.47599999999997 -10.332Q168.55199999999996 -10.536 167.63999999999996 -10.536Q166.27199999999996 -10.536 165.61199999999997 -10.128Q164.95199999999997 -9.72 164.95199999999997 -9.096Q164.95199999999997 -8.52 165.38399999999996 -8.232Q165.81599999999997 -7.944 166.51199999999997 -7.776Q167.20799999999997 -7.6080000000000005 168.05999999999997 -7.5Q168.91199999999998 -7.392 169.75199999999995 -7.176Q170.59199999999996 -6.96 171.29999999999995 -6.588Q172.00799999999998 -6.216 172.43999999999997 -5.5440000000000005Q172.87199999999996 -4.872 172.87199999999996 -3.7920000000000003Q172.87199999999996 -2.592 172.16399999999996 -1.7040000000000002Q171.45599999999996 -0.8160000000000001 170.15999999999997 -0.324Q168.86399999999998 0.168 167.06399999999996 0.168Z M182.20799999999997 0.168Q180.09599999999998 0.168 178.94399999999996 -0.924Q177.79199999999997 -2.016 177.79199999999997 -4.152V-15.648H180.79199999999997V-4.224Q180.79199999999997 -3.3120000000000003 181.26 -2.8080000000000003Q181.72799999999998 -2.3040000000000003 182.56799999999996 -2.3040000000000003Q183.57599999999996 -2.3040000000000003 184.24799999999996 -2.832L185.08799999999997 -0.6960000000000001Q184.55999999999997 -0.264 183.79199999999997 -0.048Q183.02399999999997 0.168 182.20799999999997 0.168ZM175.67999999999998 -10.416V-12.816H184.22399999999996V-10.416Z M192.07199999999997 0.0 187.36799999999997 -12.816H190.19999999999996L194.23199999999997 -1.512H192.88799999999998L197.11199999999997 -12.816H199.63199999999995L203.73599999999996 -1.512H202.41599999999997L206.56799999999996 -12.816H209.23199999999997L204.50399999999996 0.0H201.62399999999997L197.87999999999997 -10.008000000000001H198.76799999999997L194.95199999999997 0.0Z M218.61599999999996 0.168Q216.64799999999994 0.168 215.11199999999994 -0.684Q213.57599999999994 -1.536 212.68799999999993 -3.024Q211.79999999999995 -4.5120000000000005 211.79999999999995 -6.408Q211.79999999999995 -8.328 212.68799999999993 -9.803999999999998Q213.57599999999994 -11.28 215.11199999999994 -12.120000000000001Q216.64799999999994 -12.96 218.61599999999996 -12.96Q220.60799999999995 -12.96 222.15599999999995 -12.120000000000001Q223.70399999999995 -11.28 224.57999999999996 -9.815999999999999Q225.45599999999996 -8.352 225.45599999999996 -6.408Q225.45599999999996 -4.5120000000000005 224.57999999999996 -3.024Q223.70399999999995 -1.536 222.15599999999995 -0.684Q220.60799999999995 0.168 218.61599999999996 0.168ZM218.61599999999996 -2.4Q219.71999999999994 -2.4 220.58399999999995 -2.88Q221.44799999999995 -3.36 221.93999999999994 -4.272Q222.43199999999996 -5.184 222.43199999999996 -6.408Q222.43199999999996 -7.656000000000001 221.93999999999994 -8.556000000000001Q221.44799999999995 -9.456 220.58399999999995 -9.936Q219.71999999999994 -10.416 218.63999999999996 -10.416Q217.53599999999994 -10.416 216.68399999999994 -9.936Q215.83199999999994 -9.456 215.32799999999995 -8.556000000000001Q214.82399999999996 -7.656000000000001 214.82399999999996 -6.408Q214.82399999999996 -5.184 215.32799999999995 -4.272Q215.83199999999994 -3.36 216.68399999999994 -2.88Q217.53599999999994 -2.4 218.61599999999996 -2.4Z"/>
<circle cx="361.66" cy="461.5" r="4.5" fill="#2E8B3E"/>
<path transform="translate(395.66 470)" fill="#1D2B3E" d="M0.984 0.0V-2.088L11.832 -15.336L12.192 -14.16H1.1520000000000001V-16.8H15.0V-14.712L4.152 -1.464L3.7680000000000002 -2.64H15.312000000000001V0.0Z M25.368 4.824Q23.592 4.824 21.9 4.356Q20.208 3.888 19.128 3.0L20.471999999999998 0.744Q21.311999999999998 1.44 22.595999999999997 1.86Q23.88 2.2800000000000002 25.2 2.2800000000000002Q27.311999999999998 2.2800000000000002 28.296 1.308Q29.28 0.336 29.28 -1.608V-3.888L29.52 -6.792L29.424 -9.696V-12.816H32.28V-1.944Q32.28 1.536 30.504 3.1799999999999997Q28.728 4.824 25.368 4.824ZM24.983999999999998 -0.5760000000000001Q23.16 -0.5760000000000001 21.683999999999997 -1.356Q20.208 -2.136 19.355999999999998 -3.528Q18.503999999999998 -4.92 18.503999999999998 -6.792Q18.503999999999998 -8.64 19.355999999999998 -10.032Q20.208 -11.424 21.683999999999997 -12.192Q23.16 -12.96 24.983999999999998 -12.96Q26.616 -12.96 27.912 -12.312000000000001Q29.208 -11.664 29.988 -10.296Q30.768 -8.928 30.768 -6.792Q30.768 -4.656 29.988 -3.276Q29.208 -1.8960000000000001 27.912 -1.2360000000000002Q26.616 -0.5760000000000001 24.983999999999998 -0.5760000000000001ZM25.439999999999998 -3.12Q26.567999999999998 -3.12 27.456 -3.588Q28.344 -4.056 28.836 -4.884Q29.328 -5.712 29.328 -6.792Q29.328 -7.872 28.836 -8.7Q28.344 -9.528 27.456 -9.972000000000001Q26.567999999999998 -10.416 25.439999999999998 -10.416Q24.311999999999998 -10.416 23.412 -9.972000000000001Q22.512 -9.528 22.02 -8.7Q21.528 -7.872 21.528 -6.792Q21.528 -5.712 22.02 -4.884Q22.512 -4.056 23.412 -3.588Q24.311999999999998 -3.12 25.439999999999998 -3.12Z M43.896 0.168Q41.928 0.168 40.391999999999996 -0.684Q38.856 -1.536 37.968 -3.024Q37.08 -4.5120000000000005 37.08 -6.408Q37.08 -8.328 37.968 -9.803999999999998Q38.856 -11.28 40.391999999999996 -12.120000000000001Q41.928 -12.96 43.896 -12.96Q45.888 -12.96 47.436 -12.120000000000001Q48.984 -11.28 49.86 -9.815999999999999Q50.736 -8.352 50.736 -6.408Q50.736 -4.5120000000000005 49.86 -3.024Q48.984 -1.536 47.436 -0.684Q45.888 0.168 43.896 0.168ZM43.896 -2.4Q45.0 -2.4 45.864000000000004 -2.88Q46.728 -3.36 47.22 -4.272Q47.712 -5.184 47.712 -6.408Q47.712 -7.656000000000001 47.22 -8.556000000000001Q46.728 -9.456 45.864000000000004 -9.936Q45.0 -10.416 43.92 -10.416Q42.816 -10.416 41.964 -9.936Q41.112 -9.456 40.608000000000004 -8.556000000000001Q40.104 -7.656000000000001 40.104 -6.408Q40.104 -5.184 40.608000000000004 -4.272Q41.112 -3.36 41.964 -2.88Q42.816 -2.4 43.896 -2.4Z M60.96 0.168Q59.111999999999995 0.168 57.635999999999996 -0.66Q56.16 -1.488 55.31999999999999 -2.952Q54.48 -4.416 54.48 -6.408Q54.48 -8.4 55.31999999999999 -9.864Q56.16 -11.328 57.635999999999996 -12.144Q59.111999999999995 -12.96 60.96 -12.96Q62.568 -12.96 63.839999999999996 -12.252Q65.112 -11.544 65.856 -10.104Q66.6 -8.664 66.6 -6.408Q66.6 -4.176 65.88 -2.724Q65.16 -1.272 63.888 -0.552Q62.616 0.168 60.96 0.168ZM61.32 -2.4Q62.4 -2.4 63.251999999999995 -2.88Q64.104 -3.36 64.62 -4.272Q65.136 -5.184 65.136 -6.408Q65.136 -7.656000000000001 64.62 -8.556000000000001Q64.104 -9.456 63.251999999999995 -9.936Q62.4 -10.416 61.32 -10.416Q60.239999999999995 -10.416 59.388 -9.936Q58.536 -9.456 58.019999999999996 -8.556000000000001Q57.504 -7.656000000000001 57.504 -6.408Q57.504 -5.184 58.019999999999996 -4.272Q58.536 -3.36 59.388 -2.88Q60.239999999999995 -2.4 61.32 -2.4ZM65.208 0.0V-3.024L65.328 -6.432L65.088 -9.84V-17.808H68.064V0.0Z M73.944 0.0V-12.816H76.8V-9.36L76.29599999999999 -10.416Q76.968 -11.64 78.25200000000001 -12.3Q79.536 -12.96 81.216 -12.96Q82.752 -12.96 83.964 -12.36Q85.176 -11.76 85.872 -10.524000000000001Q86.568 -9.288 86.568 -7.344V0.0H83.568V-6.96Q83.568 -8.664 82.764 -9.504Q81.96 -10.344 80.52 -10.344Q79.464 -10.344 78.648 -9.911999999999999Q77.832 -9.48 77.388 -8.628Q76.944 -7.776 76.944 -6.48V0.0Z M98.088 0.168Q96.12 0.168 94.584 -0.684Q93.048 -1.536 92.16 -3.024Q91.272 -4.5120000000000005 91.272 -6.408Q91.272 -8.328 92.16 -9.803999999999998Q93.048 -11.28 94.584 -12.120000000000001Q96.12 -12.96 98.088 -12.96Q100.08 -12.96 101.628 -12.120000000000001Q103.176 -11.28 104.05199999999999 -9.815999999999999Q104.928 -8.352 104.928 -6.408Q104.928 -4.5120000000000005 104.05199999999999 -3.024Q103.176 -1.536 101.628 -0.684Q100.08 0.168 98.088 0.168ZM98.088 -2.4Q99.19200000000001 -2.4 100.05600000000001 -2.88Q100.92 -3.36 101.412 -4.272Q101.904 -5.184 101.904 -6.408Q101.904 -7.656000000000001 101.412 -8.556000000000001Q100.92 -9.456 100.05600000000001 -9.936Q99.19200000000001 -10.416 98.112 -10.416Q97.008 -10.416 96.156 -9.936Q95.304 -9.456 94.8 -8.556000000000001Q94.29599999999999 -7.656000000000001 94.29599999999999 -6.408Q94.29599999999999 -5.184 94.8 -4.272Q95.304 -3.36 96.156 -2.88Q97.008 -2.4 98.088 -2.4Z M113.688 0.168Q112.08000000000001 0.168 110.60400000000001 -0.252Q109.128 -0.672 108.26400000000001 -1.272L109.41600000000001 -3.552Q110.28 -3.0 111.48 -2.64Q112.68 -2.2800000000000002 113.88000000000001 -2.2800000000000002Q115.296 -2.2800000000000002 115.93200000000002 -2.664Q116.56800000000001 -3.048 116.56800000000001 -3.696Q116.56800000000001 -4.224 116.13600000000001 -4.5Q115.70400000000001 -4.776 115.00800000000001 -4.92Q114.31200000000001 -5.064 113.46000000000001 -5.184Q112.608 -5.304 111.756 -5.508Q110.90400000000001 -5.712 110.208 -6.1080000000000005Q109.512 -6.5040000000000004 109.08000000000001 -7.176Q108.64800000000001 -7.848 108.64800000000001 -8.952Q108.64800000000001 -10.176 109.34400000000001 -11.076Q110.04 -11.976 111.30000000000001 -12.468Q112.56 -12.96 114.28800000000001 -12.96Q115.584 -12.96 116.904 -12.672Q118.224 -12.384 119.08800000000001 -11.856L117.936 -9.576Q117.024 -10.128 116.1 -10.332Q115.176 -10.536 114.26400000000001 -10.536Q112.896 -10.536 112.236 -10.128Q111.57600000000001 -9.72 111.57600000000001 -9.096Q111.57600000000001 -8.52 112.00800000000001 -8.232Q112.44 -7.944 113.136 -7.776Q113.83200000000001 -7.6080000000000005 114.684 -7.5Q115.536 -7.392 116.376 -7.176Q117.21600000000001 -6.96 117.924 -6.588Q118.632 -6.216 119.06400000000001 -5.5440000000000005Q119.49600000000001 -4.872 119.49600000000001 -3.7920000000000003Q119.49600000000001 -2.592 118.78800000000001 -1.7040000000000002Q118.08000000000001 -0.8160000000000001 116.784 -0.324Q115.488 0.168 113.688 0.168ZM111.84 -14.568 115.08000000000001 -17.856H118.608L114.432 -14.568Z M129.888 0.168Q127.872 0.168 126.30000000000001 -0.684Q124.72800000000001 -1.536 123.84 -3.024Q122.95200000000001 -4.5120000000000005 122.95200000000001 -6.408Q122.95200000000001 -8.328 123.84 -9.803999999999998Q124.72800000000001 -11.28 126.30000000000001 -12.120000000000001Q127.872 -12.96 129.888 -12.96Q131.76000000000002 -12.96 133.18800000000002 -12.204Q134.616 -11.448 135.36 -9.984L133.056 -8.64Q132.48000000000002 -9.552 131.65200000000002 -9.984Q130.824 -10.416 129.864 -10.416Q128.76000000000002 -10.416 127.87200000000001 -9.936Q126.98400000000001 -9.456 126.48 -8.556000000000001Q125.976 -7.656000000000001 125.976 -6.408Q125.976 -5.16 126.48 -4.26Q126.98400000000001 -3.36 127.87200000000001 -2.88Q128.76000000000002 -2.4 129.864 -2.4Q130.824 -2.4 131.65200000000002 -2.832Q132.48000000000002 -3.2640000000000002 133.056 -4.176L135.36 -2.832Q134.616 -1.3920000000000001 133.18800000000002 -0.6120000000000001Q131.76000000000002 0.168 129.888 0.168ZM127.512 -14.568 130.752 -17.856H134.28L130.104 -14.568Z"/>
<circle cx="565.64" cy="461.5" r="4.5" fill="#2E8B3E"/>
<path transform="translate(599.64 470)" fill="#1D2B3E" d="M2.2560000000000002 0.0V-16.8H9.144Q12.504 -16.8 14.411999999999999 -15.216000000000001Q16.32 -13.632 16.32 -10.824Q16.32 -8.976 15.456 -7.644Q14.592 -6.312 12.996 -5.604Q11.4 -4.896 9.168000000000001 -4.896H3.984L5.376 -6.312V0.0ZM13.248000000000001 0.0 9.0 -6.096H12.336L16.608 0.0ZM5.376 -5.976 3.984 -7.464H9.024000000000001Q11.088000000000001 -7.464 12.132000000000001 -8.352Q13.176 -9.24 13.176 -10.824Q13.176 -12.432 12.132000000000001 -13.296Q11.088000000000001 -14.16 9.024000000000001 -14.16H3.984L5.376 -15.696Z M27.192 0.168Q25.223999999999997 0.168 23.687999999999995 -0.684Q22.151999999999997 -1.536 21.263999999999996 -3.024Q20.375999999999998 -4.5120000000000005 20.375999999999998 -6.408Q20.375999999999998 -8.328 21.263999999999996 -9.803999999999998Q22.151999999999997 -11.28 23.687999999999995 -12.120000000000001Q25.223999999999997 -12.96 27.192 -12.96Q29.183999999999997 -12.96 30.732 -12.120000000000001Q32.28 -11.28 33.156 -9.815999999999999Q34.032 -8.352 34.032 -6.408Q34.032 -4.5120000000000005 33.156 -3.024Q32.28 -1.536 30.732 -0.684Q29.183999999999997 0.168 27.192 0.168ZM27.192 -2.4Q28.296 -2.4 29.16 -2.88Q30.024 -3.36 30.516 -4.272Q31.008 -5.184 31.008 -6.408Q31.008 -7.656000000000001 30.516 -8.556000000000001Q30.024 -9.456 29.16 -9.936Q28.296 -10.416 27.215999999999998 -10.416Q26.112 -10.416 25.259999999999998 -9.936Q24.407999999999998 -9.456 23.903999999999996 -8.556000000000001Q23.4 -7.656000000000001 23.4 -6.408Q23.4 -5.184 23.903999999999996 -4.272Q24.407999999999998 -3.36 25.259999999999998 -2.88Q26.112 -2.4 27.192 -2.4Z M37.583999999999996 0.0V-1.8960000000000001L45.48 -11.448L46.032 -10.416H37.727999999999994V-12.816H48.431999999999995V-10.92L40.535999999999994 -1.368L39.936 -2.4H48.647999999999996V0.0Z M55.919999999999995 0.0 51.215999999999994 -12.816H54.047999999999995L58.08 -1.512H56.736L60.959999999999994 -12.816H63.48L67.584 -1.512H66.264L70.416 -12.816H73.08L68.352 0.0H65.472L61.727999999999994 -10.008000000000001H62.616L58.8 0.0Z M82.464 0.168Q80.49600000000001 0.168 78.96000000000001 -0.684Q77.424 -1.536 76.536 -3.024Q75.64800000000001 -4.5120000000000005 75.64800000000001 -6.408Q75.64800000000001 -8.328 76.536 -9.803999999999998Q77.424 -11.28 78.96000000000001 -12.120000000000001Q80.49600000000001 -12.96 82.464 -12.96Q84.456 -12.96 86.004 -12.120000000000001Q87.552 -11.28 88.428 -9.815999999999999Q89.304 -8.352 89.304 -6.408Q89.304 -4.5120000000000005 88.428 -3.024Q87.552 -1.536 86.004 -0.684Q84.456 0.168 82.464 0.168ZM82.464 -2.4Q83.56800000000001 -2.4 84.43200000000002 -2.88Q85.296 -3.36 85.78800000000001 -4.272Q86.28 -5.184 86.28 -6.408Q86.28 -7.656000000000001 85.78800000000001 -8.556000000000001Q85.296 -9.456 84.43200000000002 -9.936Q83.56800000000001 -10.416 82.488 -10.416Q81.384 -10.416 80.53200000000001 -9.936Q79.68 -9.456 79.176 -8.556000000000001Q78.672 -7.656000000000001 78.672 -6.408Q78.672 -5.184 79.176 -4.272Q79.68 -3.36 80.53200000000001 -2.88Q81.384 -2.4 82.464 -2.4ZM80.424 -14.568 83.66400000000002 -17.856H87.19200000000001L83.016 -14.568Z M92.64 4.824Q91.80000000000001 4.824 91.04400000000001 4.644Q90.28800000000001 4.464 89.76 4.08L90.62400000000001 1.848Q91.32000000000001 2.352 92.376 2.352Q93.19200000000001 2.352 93.648 1.8359999999999999Q94.104 1.32 94.104 0.312V-12.816H97.104V0.24Q97.104 2.352 95.94 3.588Q94.77600000000001 4.824 92.64 4.824ZM95.59200000000001 -14.928Q94.75200000000001 -14.928 94.21200000000002 -15.456Q93.67200000000001 -15.984 93.67200000000001 -16.728Q93.67200000000001 -17.496 94.21200000000002 -18.012Q94.75200000000001 -18.528 95.59200000000001 -18.528Q96.43200000000002 -18.528 96.97200000000001 -18.036Q97.51200000000001 -17.544 97.51200000000001 -16.8Q97.51200000000001 -16.008 96.98400000000001 -15.468Q96.45600000000002 -14.928 95.59200000000001 -14.928Z"/>
</svg>
